<?xml version="1.0" encoding="UTF-8"?>
<svg id="App_Logo_Colored" data-name="App Logo Colored" xmlns="http://www.w3.org/2000/svg" xmlns:xlink="http://www.w3.org/1999/xlink" viewBox="0 0 200 200">
  <defs>
    <style>
      .cls-1 {
        fill: url(#linear-gradient-7);
        stroke: url(#linear-gradient-8);
      }

      .cls-1, .cls-2, .cls-3, .cls-4, .cls-5, .cls-6, .cls-7, .cls-8 {
        stroke-miterlimit: 10;
      }

      .cls-2 {
        fill: url(#linear-gradient-9);
        stroke: url(#linear-gradient-10);
      }

      .cls-3 {
        fill: url(#linear-gradient-11);
        stroke: url(#linear-gradient-12);
      }

      .cls-4 {
        fill: url(#linear-gradient-15);
        stroke: url(#linear-gradient-16);
      }

      .cls-5 {
        fill: url(#linear-gradient);
        stroke: url(#linear-gradient-2);
      }

      .cls-6 {
        fill: url(#linear-gradient-3);
        stroke: url(#linear-gradient-4);
      }

      .cls-7 {
        fill: url(#linear-gradient-5);
        stroke: url(#linear-gradient-6);
      }

      .cls-8 {
        fill: url(#linear-gradient-13);
        stroke: url(#linear-gradient-14);
      }
    </style>
    <linearGradient id="linear-gradient" x1="15626.65" y1="3735.24" x2="15725.37" y2="3784.37" gradientTransform="translate(15504.72 4798.23) rotate(-176.66)" gradientUnits="userSpaceOnUse">
      <stop offset="0" stop-color="#b57e10"/>
      <stop offset=".22" stop-color="#e5c25b"/>
      <stop offset=".33" stop-color="#f9df7b"/>
      <stop offset=".52" stop-color="#fff3a6"/>
      <stop offset=".73" stop-color="#f9df7b"/>
      <stop offset="1" stop-color="#b57e10"/>
    </linearGradient>
    <linearGradient id="linear-gradient-2" x1="15616.16" y1="3749.5" x2="15728.2" y2="3749.5" gradientTransform="translate(15504.72 4798.23) rotate(-176.66)" gradientUnits="userSpaceOnUse">
      <stop offset="0" stop-color="#f9df7b"/>
      <stop offset=".12" stop-color="#b57e10"/>
      <stop offset=".22" stop-color="#c89d38"/>
      <stop offset=".43" stop-color="#efda86"/>
      <stop offset=".52" stop-color="#fff3a6"/>
      <stop offset=".92" stop-color="#b57e10"/>
      <stop offset=".97" stop-color="#e5c25b"/>
      <stop offset="1" stop-color="#f9df7b"/>
    </linearGradient>
    <linearGradient id="linear-gradient-3" x1="9919.52" y1="-5546.77" x2="10018.23" y2="-5497.64" gradientTransform="translate(5645.01 10018.58) rotate(-90.29)" xlink:href="#linear-gradient"/>
    <linearGradient id="linear-gradient-4" x1="9909.02" y1="-5532.51" x2="10021.06" y2="-5532.51" gradientTransform="translate(5645.01 10018.58) rotate(-90.29)" xlink:href="#linear-gradient-2"/>
    <linearGradient id="linear-gradient-5" x1="252.34" y1="-87.35" x2="351.06" y2="-38.22" gradientTransform="translate(-174.94 145.75) rotate(-1.92)" xlink:href="#linear-gradient"/>
    <linearGradient id="linear-gradient-6" x1="241.84" y1="-73.08" x2="353.89" y2="-73.08" gradientTransform="translate(-174.94 145.75) rotate(-1.92)" xlink:href="#linear-gradient-2"/>
    <linearGradient id="linear-gradient-7" x1="5535.46" y1="9829.49" x2="5634.17" y2="9878.62" gradientTransform="translate(9699.35 -5936.05) rotate(87.2)" xlink:href="#linear-gradient"/>
    <linearGradient id="linear-gradient-8" x1="5524.96" y1="9843.75" x2="5637" y2="9843.75" gradientTransform="translate(9699.35 -5936.05) rotate(87.2)" xlink:href="#linear-gradient-2"/>
    <linearGradient id="linear-gradient-9" x1="8.24" y1="67.48" x2="33.01" y2="79.8" gradientTransform="matrix(1,0,0,1,0,0)" xlink:href="#linear-gradient"/>
    <linearGradient id="linear-gradient-10" x1="3.12" y1="73.73" x2="38.47" y2="73.73" gradientTransform="matrix(1,0,0,1,0,0)" xlink:href="#linear-gradient-2"/>
    <linearGradient id="linear-gradient-11" x1="8829.19" y1="-5119.27" x2="8853.95" y2="-5106.94" gradientTransform="translate(2866.74 9861.83) rotate(-75.53)" xlink:href="#linear-gradient"/>
    <linearGradient id="linear-gradient-12" x1="8824.07" y1="-5113.02" x2="8859.42" y2="-5113.02" gradientTransform="translate(2866.74 9861.83) rotate(-75.53)" xlink:href="#linear-gradient-2"/>
    <linearGradient id="linear-gradient-13" x1="238.76" y1="-159.43" x2="263.53" y2="-147.1" gradientTransform="translate(-66.32 285.96) rotate(-2.1)" xlink:href="#linear-gradient"/>
    <linearGradient id="linear-gradient-14" x1="233.64" y1="-153.18" x2="268.99" y2="-153.18" gradientTransform="translate(-66.32 285.96) rotate(-2.1)" xlink:href="#linear-gradient-2"/>
    <linearGradient id="linear-gradient-15" x1="-232.82" y1="5341.6" x2="-208.06" y2="5353.93" gradientTransform="translate(3435.15 -3991.16) rotate(36.49)" xlink:href="#linear-gradient"/>
    <linearGradient id="linear-gradient-16" x1="-237.94" y1="5347.85" x2="-202.59" y2="5347.85" gradientTransform="translate(3435.15 -3991.16) rotate(36.49)" xlink:href="#linear-gradient-2"/>
  </defs>
  <path class="cls-5" d="M23.45,119.35c.32-5.56,1.46-10.87,3.28-15.84,1.12,10.89,5.58,21.55,13.41,30.36,9.98,11.2,23.53,17.3,37.41,18.1,13.87.82,28.06-3.66,39.26-13.62,8.34-7.44,13.86-16.85,16.47-26.92.95,4.63,1.32,9.46,1.03,14.4-.28,4.78-1.16,9.39-2.55,13.75-.56,1.75-1.2,3.45-1.92,5.12-.19.42-.37.83-.56,1.24-.19.41-.39.82-.59,1.23-.2.39-.4.8-.61,1.2-.93,1.79-1.97,3.51-3.08,5.17-.25.36-.5.73-.75,1.09-.27.38-.53.74-.81,1.12s-.56.74-.85,1.1c-.29.36-.58.72-.88,1.09-1.79,2.16-3.75,4.2-5.91,6.12-7.29,6.48-15.79,10.7-24.67,12.7,0,.01.01.01.01.03-4.95,1.12-10.15,1.57-15.49,1.26-30.61-1.79-53.99-28.06-52.2-58.67Z"/>
  <path class="cls-6" d="M80.88,25.98c5.57-.03,10.94.77,16.02,2.27-10.79,1.81-21.15,6.93-29.45,15.31-10.55,10.67-15.78,24.58-15.69,38.48.06,13.9,5.43,27.77,16.08,38.32,7.95,7.86,17.7,12.77,27.91,14.73-4.56,1.24-9.36,1.91-14.31,1.94-4.79.02-9.44-.56-13.88-1.67-1.79-.45-3.52-.98-5.23-1.6-.43-.16-.85-.32-1.27-.48-.42-.16-.84-.33-1.26-.51-.41-.17-.83-.35-1.23-.53-1.84-.82-3.63-1.74-5.35-2.74-.38-.23-.76-.46-1.14-.68-.39-.24-.77-.48-1.17-.74s-.77-.51-1.15-.78c-.38-.27-.76-.54-1.14-.81-2.27-1.65-4.43-3.48-6.48-5.51-6.93-6.86-11.68-15.08-14.24-23.82-.01,0-.01.01-.03.01-1.43-4.87-2.21-10.03-2.24-15.38-.15-30.66,24.58-55.65,55.25-55.81Z"/>
  <path class="cls-7" d="M176.44,79.77c.19,5.57-.46,10.96-1.82,16.08-2.12-10.74-7.53-20.95-16.14-29.01-10.96-10.24-25.02-15.07-38.91-14.59-13.89.45-27.61,6.21-37.85,17.16-7.63,8.17-12.26,18.05-13.93,28.32-1.37-4.53-2.18-9.3-2.34-14.25-.16-4.78.29-9.45,1.28-13.92.4-1.8.88-3.55,1.45-5.27.15-.44.3-.86.44-1.29.15-.42.31-.85.47-1.27.16-.41.32-.84.5-1.25.76-1.87,1.64-3.68,2.59-5.43.22-.39.43-.77.65-1.16.23-.4.46-.79.7-1.19s.49-.79.75-1.17c.26-.39.52-.77.77-1.16,1.59-2.31,3.35-4.52,5.32-6.63,6.66-7.12,14.75-12.1,23.41-14.91,0-.01-.01-.01-.01-.03,4.83-1.57,9.97-2.5,15.31-2.68,30.65-1.03,56.33,22.99,57.36,53.64Z"/>
  <path class="cls-1" d="M123.87,175.61c-5.56.27-10.97-.29-16.1-1.57,10.7-2.28,20.83-7.85,28.75-16.58,10.07-11.12,14.68-25.25,13.99-39.13-.67-13.88-6.64-27.51-17.74-37.58-8.29-7.5-18.24-11.98-28.53-13.49,4.51-1.44,9.27-2.32,14.21-2.56,4.78-.23,9.46.15,13.94,1.06,1.8.37,3.56.83,5.29,1.37.44.14.87.28,1.29.42.43.14.85.3,1.28.45.41.16.84.31,1.26.48,1.88.73,3.71,1.58,5.47,2.51.39.21.78.42,1.17.63.4.22.79.45,1.2.69s.79.48,1.19.73c.39.25.78.5,1.17.75,2.34,1.55,4.57,3.28,6.71,5.22,7.22,6.55,12.33,14.56,15.27,23.17.01,0,.01-.01.03-.01,1.64,4.81,2.65,9.93,2.91,15.26,1.5,30.63-22.12,56.68-52.75,58.18Z"/>
  <circle class="cls-2" cx="20.8" cy="73.73" r="17.18"/>
  <circle class="cls-3" cx="125.25" cy="22.95" r="17.18"/>
  <circle class="cls-8" cx="179.2" cy="123.66" r="17.18"/>
  <circle class="cls-4" cx="77.47" cy="177.05" r="17.18"/>
</svg>