<svg width="75" height="75" viewBox="0 0 75 75" fill="none" xmlns="http://www.w3.org/2000/svg">
<circle cx="37.5" cy="37.5" r="37.5" fill="#0A0A0A"/>
<path d="M24.288 57.728L20.032 54.312L50.16 17.072L54.416 20.488L24.288 57.728ZM47.92 57.56C45.0827 57.56 42.8613 56.8133 41.256 55.32C39.6507 53.7893 38.848 51.7173 38.848 49.104V48.712C38.848 46.0613 39.6507 43.9893 41.256 42.496C42.8613 40.9653 45.0827 40.2 47.92 40.2C50.6827 40.2 52.8853 40.9653 54.528 42.496C56.1707 43.9893 56.992 46.0613 56.992 48.712V49.104C56.992 51.7173 56.1893 53.7893 54.584 55.32C52.9787 56.8133 50.7573 57.56 47.92 57.56ZM47.92 52.968C49.0027 52.968 49.8427 52.632 50.44 51.96C51.0747 51.288 51.392 50.4107 51.392 49.328V48.432C51.392 47.3493 51.0747 46.472 50.44 45.8C49.8427 45.128 49.0027 44.792 47.92 44.792C46.8373 44.792 45.9787 45.128 45.344 45.8C44.7467 46.472 44.448 47.3493 44.448 48.432V49.328C44.448 50.4107 44.7467 51.288 45.344 51.96C45.9787 52.632 46.8373 52.968 47.92 52.968ZM26.528 34.6C23.6907 34.6 21.4693 33.8533 19.864 32.36C18.2587 30.8293 17.456 28.7573 17.456 26.144V25.752C17.456 23.1013 18.2587 21.0293 19.864 19.536C21.4693 18.0053 23.6907 17.24 26.528 17.24C29.2907 17.24 31.4933 18.0053 33.136 19.536C34.7787 21.0293 35.6 23.1013 35.6 25.752V26.144C35.6 28.7573 34.7973 30.8293 33.192 32.36C31.5867 33.8533 29.3653 34.6 26.528 34.6ZM26.528 30.008C27.6107 30.008 28.4507 29.672 29.048 29C29.6827 28.328 30 27.4507 30 26.368V25.472C30 24.3893 29.6827 23.512 29.048 22.84C28.4507 22.168 27.6107 21.832 26.528 21.832C25.4453 21.832 24.5867 22.168 23.952 22.84C23.3547 23.512 23.056 24.3893 23.056 25.472V26.368C23.056 27.4507 23.3547 28.328 23.952 29C24.5867 29.672 25.4453 30.008 26.528 30.008Z" fill="url(#paint0_linear_444_146)"/>
<defs>
<linearGradient id="paint0_linear_444_146" x1="-3.05682" y1="37.5" x2="75.6136" y2="37.5" gradientUnits="userSpaceOnUse">
<stop stop-color="#111111" stop-opacity="0.3"/>
<stop offset="0.254" stop-color="#F5F5F7" stop-opacity="0.65"/>
<stop offset="0.5" stop-color="#FDFDFD"/>
<stop offset="0.75" stop-color="#F5F5F7" stop-opacity="0.65"/>
<stop offset="1" stop-color="#111111" stop-opacity="0.3"/>
</linearGradient>
</defs>
</svg>
