<svg width="318" height="163" viewBox="0 0 318 163" fill="none" xmlns="http://www.w3.org/2000/svg">
<path d="M11.2727 126V32.9091H22.5455V116H65.8182V126H11.2727ZM99.52 127.792L92.608 122.288L163.904 34.608L170.688 40.112L99.52 127.792ZM156.352 127.664C150.123 127.664 145.131 125.872 141.376 122.288C137.707 118.619 135.872 113.669 135.872 107.44V106.672C135.872 100.443 137.707 95.536 141.376 91.952C145.131 88.2827 150.123 86.448 156.352 86.448C162.411 86.448 167.317 88.2827 171.072 91.952C174.827 95.536 176.704 100.443 176.704 106.672V107.44C176.704 113.669 174.827 118.619 171.072 122.288C167.403 125.872 162.496 127.664 156.352 127.664ZM156.352 120.24C159.936 120.24 162.752 119.088 164.8 116.784C166.933 114.48 168 111.493 168 107.824V106.288C168 102.533 166.933 99.5467 164.8 97.328C162.752 95.024 159.936 93.872 156.352 93.872C152.683 93.872 149.781 95.024 147.648 97.328C145.6 99.5467 144.576 102.533 144.576 106.288V107.824C144.576 111.493 145.6 114.48 147.648 116.784C149.781 119.088 152.683 120.24 156.352 120.24ZM107.072 75.952C100.843 75.952 95.8933 74.1173 92.224 70.448C88.5547 66.7787 86.72 61.872 86.72 55.728V54.96C86.72 48.7307 88.5547 43.824 92.224 40.24C95.8933 36.5707 100.843 34.736 107.072 34.736C113.216 34.736 118.123 36.5707 121.792 40.24C125.547 43.824 127.424 48.7307 127.424 54.96V55.728C127.424 61.872 125.547 66.7787 121.792 70.448C118.123 74.1173 113.216 75.952 107.072 75.952ZM107.072 68.528C110.656 68.528 113.515 67.376 115.648 65.072C117.781 62.768 118.848 59.7813 118.848 56.112V54.576C118.848 50.8213 117.781 47.8347 115.648 45.616C113.515 43.312 110.656 42.16 107.072 42.16C103.403 42.16 100.501 43.312 98.368 45.616C96.32 47.8347 95.296 50.8213 95.296 54.576V56.112C95.296 59.7813 96.32 62.768 98.368 65.072C100.501 67.376 103.403 68.528 107.072 68.528ZM213.9 32.9091V126H202.628V32.9091H213.9ZM252.197 32.9091L276.197 71.6364H276.925L300.925 32.9091H314.197L284.925 79.4545L314.197 126H300.925L276.925 88H276.197L252.197 126H238.925L268.925 79.4545L238.925 32.9091H252.197Z" fill="#FDFDFD"/>
</svg>
