<svg width="318" height="163" viewBox="0 0 318 163" fill="none" xmlns="http://www.w3.org/2000/svg">
<path d="M10.24 126V36.4H20.992V116.272H66.304V126H10.24ZM97.395 127.792L90.483 122.288L161.779 34.608L168.563 40.112L97.395 127.792ZM154.227 127.664C147.998 127.664 143.006 125.872 139.251 122.288C135.582 118.619 133.747 113.669 133.747 107.44V106.672C133.747 100.443 135.582 95.536 139.251 91.952C143.006 88.2827 147.998 86.448 154.227 86.448C160.286 86.448 165.192 88.2827 168.947 91.952C172.702 95.536 174.579 100.443 174.579 106.672V107.44C174.579 113.669 172.702 118.619 168.947 122.288C165.278 125.872 160.371 127.664 154.227 127.664ZM154.227 120.24C157.811 120.24 160.627 119.088 162.675 116.784C164.808 114.48 165.875 111.493 165.875 107.824V106.288C165.875 102.533 164.808 99.5467 162.675 97.328C160.627 95.024 157.811 93.872 154.227 93.872C150.558 93.872 147.656 95.024 145.523 97.328C143.475 99.5467 142.451 102.533 142.451 106.288V107.824C142.451 111.493 143.475 114.48 145.523 116.784C147.656 119.088 150.558 120.24 154.227 120.24ZM104.947 75.952C98.7177 75.952 93.7683 74.1173 90.099 70.448C86.4297 66.7787 84.595 61.872 84.595 55.728V54.96C84.595 48.7307 86.4297 43.824 90.099 40.24C93.7683 36.5707 98.7177 34.736 104.947 34.736C111.091 34.736 115.998 36.5707 119.667 40.24C123.422 43.824 125.299 48.7307 125.299 54.96V55.728C125.299 61.872 123.422 66.7787 119.667 70.448C115.998 74.1173 111.091 75.952 104.947 75.952ZM104.947 68.528C108.531 68.528 111.39 67.376 113.523 65.072C115.656 62.768 116.723 59.7813 116.723 56.112V54.576C116.723 50.8213 115.656 47.8347 113.523 45.616C111.39 43.312 108.531 42.16 104.947 42.16C101.278 42.16 98.3763 43.312 96.243 45.616C94.195 47.8347 93.171 50.8213 93.171 54.576V56.112C93.171 59.7813 94.195 62.768 96.243 65.072C98.3763 67.376 101.278 68.528 104.947 68.528ZM199.47 126V36.4H210.222V126H199.47ZM234.816 126L263.744 80.816L235.2 36.4H247.872L270.656 73.392H272.32L295.232 36.4H307.776L279.36 80.816L308.288 126H295.744L272.32 88.24H270.656L247.36 126H234.816Z" fill="#0A0A0A"/>
</svg>
