<svg width="321" height="163" viewBox="0 0 321 163" fill="none" xmlns="http://www.w3.org/2000/svg">
<path d="M9.18182 126V32.9091H26.0455V111.864H67.0455V126H9.18182ZM101.684 127.664L91.956 119.856L160.82 34.736L170.548 42.544L101.684 127.664ZM155.7 127.28C149.215 127.28 144.137 125.573 140.468 122.16C136.799 118.661 134.964 113.925 134.964 107.952V107.056C134.964 100.997 136.799 96.2613 140.468 92.848C144.137 89.3493 149.215 87.6 155.7 87.6C162.015 87.6 167.049 89.3493 170.804 92.848C174.559 96.2613 176.436 100.997 176.436 107.056V107.952C176.436 113.925 174.601 118.661 170.932 122.16C167.263 125.573 162.185 127.28 155.7 127.28ZM155.7 116.784C158.175 116.784 160.095 116.016 161.46 114.48C162.911 112.944 163.636 110.939 163.636 108.464V106.416C163.636 103.941 162.911 101.936 161.46 100.4C160.095 98.864 158.175 98.096 155.7 98.096C153.225 98.096 151.263 98.864 149.812 100.4C148.447 101.936 147.764 103.941 147.764 106.416V108.464C147.764 110.939 148.447 112.944 149.812 114.48C151.263 116.016 153.225 116.784 155.7 116.784ZM106.804 74.8C100.319 74.8 95.2413 73.0933 91.572 69.68C87.9027 66.1813 86.068 61.4453 86.068 55.472V54.576C86.068 48.5173 87.9027 43.7813 91.572 40.368C95.2413 36.8693 100.319 35.12 106.804 35.12C113.119 35.12 118.153 36.8693 121.908 40.368C125.663 43.7813 127.54 48.5173 127.54 54.576V55.472C127.54 61.4453 125.705 66.1813 122.036 69.68C118.367 73.0933 113.289 74.8 106.804 74.8ZM106.804 64.304C109.279 64.304 111.199 63.536 112.564 62C114.015 60.464 114.74 58.4587 114.74 55.984V53.936C114.74 51.4613 114.015 49.456 112.564 47.92C111.199 46.384 109.279 45.616 106.804 45.616C104.329 45.616 102.367 46.384 100.916 47.92C99.5507 49.456 98.868 51.4613 98.868 53.936V55.984C98.868 58.4587 99.5507 60.464 100.916 62C102.367 63.536 104.329 64.304 106.804 64.304ZM216.025 32.9091V126H199.162V32.9091H216.025ZM258.618 32.9091L279.118 67H279.845L300.436 32.9091H319.663L290.981 79.4545L320.118 126H300.572L279.845 92.1364H279.118L258.39 126H238.936L268.345 79.4545L239.3 32.9091H258.618Z" fill="#0A0A0A"/>
</svg>
