<svg width="75" height="75" viewBox="0 0 75 75" fill="none" xmlns="http://www.w3.org/2000/svg">
<circle cx="37.5" cy="37.5" r="37.5" fill="#0A0A0A"/>
<path d="M23.56 57.784L20.536 55.376L51.728 17.016L54.696 19.424L23.56 57.784ZM48.424 57.728C45.6987 57.728 43.5147 56.944 41.872 55.376C40.2667 53.7707 39.464 51.6053 39.464 48.88V48.544C39.464 45.8187 40.2667 43.672 41.872 42.104C43.5147 40.4987 45.6987 39.696 48.424 39.696C51.0747 39.696 53.2213 40.4987 54.864 42.104C56.5067 43.672 57.328 45.8187 57.328 48.544V48.88C57.328 51.6053 56.5067 53.7707 54.864 55.376C53.2587 56.944 51.112 57.728 48.424 57.728ZM48.424 54.48C49.992 54.48 51.224 53.976 52.12 52.968C53.0533 51.96 53.52 50.6533 53.52 49.048V48.376C53.52 46.7333 53.0533 45.4267 52.12 44.456C51.224 43.448 49.992 42.944 48.424 42.944C46.8187 42.944 45.5493 43.448 44.616 44.456C43.72 45.4267 43.272 46.7333 43.272 48.376V49.048C43.272 50.6533 43.72 51.96 44.616 52.968C45.5493 53.976 46.8187 54.48 48.424 54.48ZM26.864 35.104C24.1387 35.104 21.9733 34.3013 20.368 32.696C18.7627 31.0907 17.96 28.944 17.96 26.256V25.92C17.96 23.1947 18.7627 21.048 20.368 19.48C21.9733 17.8747 24.1387 17.072 26.864 17.072C29.552 17.072 31.6987 17.8747 33.304 19.48C34.9467 21.048 35.768 23.1947 35.768 25.92V26.256C35.768 28.944 34.9467 31.0907 33.304 32.696C31.6987 34.3013 29.552 35.104 26.864 35.104ZM26.864 31.856C28.432 31.856 29.6827 31.352 30.616 30.344C31.5493 29.336 32.016 28.0293 32.016 26.424V25.752C32.016 24.1093 31.5493 22.8027 30.616 21.832C29.6827 20.824 28.432 20.32 26.864 20.32C25.2587 20.32 23.9893 20.824 23.056 21.832C22.16 22.8027 21.712 24.1093 21.712 25.752V26.424C21.712 28.0293 22.16 29.336 23.056 30.344C23.9893 31.352 25.2587 31.856 26.864 31.856Z" fill="url(#paint0_linear_444_146)"/>
<defs>
<linearGradient id="paint0_linear_444_146" x1="-3.5" y1="37.5" x2="77" y2="37.5" gradientUnits="userSpaceOnUse">
<stop stop-color="#111111" stop-opacity="0.3"/>
<stop offset="0.254" stop-color="#F5F5F7" stop-opacity="0.65"/>
<stop offset="0.5" stop-color="#FDFDFD"/>
<stop offset="0.75" stop-color="#F5F5F7" stop-opacity="0.65"/>
<stop offset="1" stop-color="#111111" stop-opacity="0.3"/>
</linearGradient>
</defs>
</svg>
