<svg xmlns="http://www.w3.org/2000/svg" viewBox="0 0 88.49 88.49"><g data-name="Layer 2"><g data-name="Layer 1"><rect width="84.49" height="84.49" x="2" y="2" fill="none" stroke="#000" stroke-miterlimit="10" stroke-width="4" rx="6.09"/><path d="m41.12 42.56 1 .38a7.34 7.34 0 0 1 4.6 5.66 10.06 10.06 0 0 1-.07 4.5 8 8 0 0 1-3.67 5 11.92 11.92 0 0 1-4.19 1.59 17.06 17.06 0 0 1-3.19.3H20.23c-.07 0-.1 0-.1-.11V28.26c0-.35 0-.33.31-.33h14.73a19.53 19.53 0 0 1 4.64.51 9.23 9.23 0 0 1 2.22.87 6.22 6.22 0 0 1 3 3.83 9.61 9.61 0 0 1 .19 4.46 6.14 6.14 0 0 1-2.35 3.83 9.15 9.15 0 0 1-1.5 1zM27.17 50.1v4.24c0 .12 0 .17.15.16h7.25a10.18 10.18 0 0 0 1.35-.07 6.09 6.09 0 0 0 2-.56 3.41 3.41 0 0 0 1.91-2.56 6.59 6.59 0 0 0 0-2.17 3.55 3.55 0 0 0-2.24-2.92l-.41-.16a6.84 6.84 0 0 0-2.2-.35h-7.65c-.11 0-.17 0-.16.15v4.24zm4-9.19H34.89a4.76 4.76 0 0 0 2.31-.73 2.76 2.76 0 0 0 1.2-1.58 4.84 4.84 0 0 0 .09-2.6 2.89 2.89 0 0 0-1.56-2 4.4 4.4 0 0 0-.85-.33 8.26 8.26 0 0 0-2.21-.27h-6.42c-.28 0-.28 0-.28.27v7c0 .28 0 .28.27.28 1.25-.03 2.49-.04 3.74-.04zm39.39 11.35a1.15 1.15 0 0 1-.1.35 12.8 12.8 0 0 1-1.83 3.54 9.16 9.16 0 0 1-4.54 3.17 13 13 0 0 1-3.7.65 13.9 13.9 0 0 1-4.49-.49 10.45 10.45 0 0 1-7.23-6.85 13.68 13.68 0 0 1-.77-4.21 13.24 13.24 0 0 1 .71-5.07 11.1 11.1 0 0 1 8.47-7.51 11.92 11.92 0 0 1 6.43.3 10.15 10.15 0 0 1 5.67 4.67 13.69 13.69 0 0 1 1.64 4.64A15.88 15.88 0 0 1 71 49c0 .34 0 .33-.35.33h-16c-.47 0-.46-.12-.41.46a10.34 10.34 0 0 0 .31 1.82 4.48 4.48 0 0 0 3.75 3.43 7.28 7.28 0 0 0 3.44-.1 5.58 5.58 0 0 0 2.55-1.63 2.89 2.89 0 0 0 .58-1 .23.23 0 0 1 .25-.18h5.25s.15.07.19.13zm-6-7v-.06c0-.15-.06-.31-.1-.46a8 8 0 0 0-1.1-2.65 3.68 3.68 0 0 0-2.15-1.51 6.78 6.78 0 0 0-2.54-.17 4.77 4.77 0 0 0-3.58 2.12 5.82 5.82 0 0 0-.87 2.6c0 .12 0 .18.16.17h9.92a.68.68 0 0 0 .31-.03zm-4.91-12.1H53.5c-.32 0-.33.05-.33-.32v-3c0-.27 0-.28.27-.28h12.4a.75.75 0 0 0 .15 0 .12.12 0 0 1 .13.12v3.18a.48.48 0 0 0 0 .12c0 .12 0 .19-.17.18h-6.3z"/></g></g></svg>