<svg xmlns="http://www.w3.org/2000/svg" enable-background="new 0 0 50 50" viewBox="0 0 50 50"><path d="M5.55 10.96C2.69 14.9001 1.01 19.75 1.01 25s1.68 10.1 4.54 14.04L19.59 25 5.55 10.96zM12.49 29.36L9.71 28.8l-1.58 2.36L6.56 28.8l-2.78.56.56-2.79L1.97 25l2.37-1.57-.56-2.79 2.78.56 1.57-2.3599L9.71 21.2l2.78-.56-.56 2.79L14.29 25l-2.36 1.57L12.49 29.36zM16.51 25.8l-1.02.5401.2-1.1301-.82-.8L16 24.25l.51-1.0299.5 1.0299 1.14.16-.82.8.19 1.1301L16.51 25.8zM6.79 40.62C11.19 45.75 17.72 49 25.01 49c12.92 0 23.46-10.21 23.98-23H21.41L6.79 40.62zM48.99 24C48.47 11.21 37.93 1 25.01 1 17.72 1 11.19 4.25 6.8 9.38L21.42 24H48.99z"/><path d="M5.55 10.96C2.69 14.9001 1.01 19.75 1.01 25s1.68 10.1 4.54 14.04L19.59 25 5.55 10.96zM12.49 29.36L9.71 28.8l-1.58 2.36L6.56 28.8l-2.78.56.56-2.79L1.97 25l2.37-1.57-.56-2.79 2.78.56 1.57-2.3599L9.71 21.2l2.78-.56-.56 2.79L14.29 25l-2.36 1.57L12.49 29.36zM16.51 25.8l-1.02.5401.2-1.1301-.82-.8L16 24.25l.51-1.0299.5 1.0299 1.14.16-.82.8.19 1.1301L16.51 25.8zM6.79 40.62C11.19 45.75 17.72 49 25.01 49c12.92 0 23.46-10.21 23.98-23H21.41L6.79 40.62zM48.99 24C48.47 11.21 37.93 1 25.01 1 17.72 1 11.19 4.25 6.8 9.38L21.42 24H48.99z"/></svg>